<mxfile host="app.diagrams.net" modified="2020-10-19T15:50:20.273Z" agent="5.0 (Windows)" etag="ICP8BLpzGl-KVD4qP2pi" version="13.8.0" type="github">
  <diagram id="jdQ8MMCzgzIyr_RG6TEl" name="Page-1">
    <mxGraphModel dx="868" dy="479" grid="1" gridSize="10" guides="1" tooltips="1" connect="1" arrows="1" fold="1" page="1" pageScale="1" pageWidth="827" pageHeight="1169" math="0" shadow="0">
      <root>
        <mxCell id="0" />
        <mxCell id="1" parent="0" />
        <mxCell id="tLHa-nuJV5bWE2vfmLjr-1" value="Gameboard" style="shape=table;html=1;whiteSpace=wrap;startSize=30;container=1;collapsible=0;childLayout=tableLayout;fixedRows=1;rowLines=0;fontStyle=1;align=center;" parent="1" vertex="1">
          <mxGeometry x="90" y="40" width="420" height="330" as="geometry" />
        </mxCell>
        <mxCell id="tLHa-nuJV5bWE2vfmLjr-2" value="" style="shape=partialRectangle;html=1;whiteSpace=wrap;collapsible=0;dropTarget=0;pointerEvents=0;fillColor=none;top=0;left=0;bottom=1;right=0;points=[[0,0.5],[1,0.5]];portConstraint=eastwest;" parent="tLHa-nuJV5bWE2vfmLjr-1" vertex="1">
          <mxGeometry y="30" width="420" height="30" as="geometry" />
        </mxCell>
        <mxCell id="tLHa-nuJV5bWE2vfmLjr-3" value="Responsibilities" style="shape=partialRectangle;html=1;whiteSpace=wrap;connectable=0;fillColor=none;top=0;left=0;bottom=0;right=0;overflow=hidden;" parent="tLHa-nuJV5bWE2vfmLjr-2" vertex="1">
          <mxGeometry width="296" height="30" as="geometry" />
        </mxCell>
        <mxCell id="tLHa-nuJV5bWE2vfmLjr-4" value="Collaborations" style="shape=partialRectangle;html=1;whiteSpace=wrap;connectable=0;fillColor=none;top=0;left=0;bottom=0;right=0;align=left;spacingLeft=6;overflow=hidden;" parent="tLHa-nuJV5bWE2vfmLjr-2" vertex="1">
          <mxGeometry x="296" width="124" height="30" as="geometry" />
        </mxCell>
        <mxCell id="tLHa-nuJV5bWE2vfmLjr-5" value="" style="shape=partialRectangle;html=1;whiteSpace=wrap;collapsible=0;dropTarget=0;pointerEvents=0;fillColor=none;top=0;left=0;bottom=0;right=0;points=[[0,0.5],[1,0.5]];portConstraint=eastwest;" parent="tLHa-nuJV5bWE2vfmLjr-1" vertex="1">
          <mxGeometry y="60" width="420" height="30" as="geometry" />
        </mxCell>
        <mxCell id="tLHa-nuJV5bWE2vfmLjr-6" value="Is any Player on the goal tile" style="shape=partialRectangle;html=1;whiteSpace=wrap;connectable=0;fillColor=none;top=0;left=0;bottom=0;right=0;overflow=hidden;" parent="tLHa-nuJV5bWE2vfmLjr-5" vertex="1">
          <mxGeometry width="296" height="30" as="geometry" />
        </mxCell>
        <mxCell id="tLHa-nuJV5bWE2vfmLjr-7" value="Tile" style="shape=partialRectangle;html=1;whiteSpace=wrap;connectable=0;fillColor=none;top=0;left=0;bottom=0;right=0;align=left;spacingLeft=6;overflow=hidden;" parent="tLHa-nuJV5bWE2vfmLjr-5" vertex="1">
          <mxGeometry x="296" width="124" height="30" as="geometry" />
        </mxCell>
        <mxCell id="tLHa-nuJV5bWE2vfmLjr-8" value="" style="shape=partialRectangle;html=1;whiteSpace=wrap;collapsible=0;dropTarget=0;pointerEvents=0;fillColor=none;top=0;left=0;bottom=0;right=0;points=[[0,0.5],[1,0.5]];portConstraint=eastwest;" parent="tLHa-nuJV5bWE2vfmLjr-1" vertex="1">
          <mxGeometry y="90" width="420" height="30" as="geometry" />
        </mxCell>
        <mxCell id="tLHa-nuJV5bWE2vfmLjr-9" value="Tick (increate time unit)" style="shape=partialRectangle;html=1;whiteSpace=wrap;connectable=0;fillColor=none;top=0;left=0;bottom=0;right=0;overflow=hidden;" parent="tLHa-nuJV5bWE2vfmLjr-8" vertex="1">
          <mxGeometry width="296" height="30" as="geometry" />
        </mxCell>
        <mxCell id="tLHa-nuJV5bWE2vfmLjr-10" value="" style="shape=partialRectangle;html=1;whiteSpace=wrap;connectable=0;fillColor=none;top=0;left=0;bottom=0;right=0;align=left;spacingLeft=6;overflow=hidden;" parent="tLHa-nuJV5bWE2vfmLjr-8" vertex="1">
          <mxGeometry x="296" width="124" height="30" as="geometry" />
        </mxCell>
        <mxCell id="tLHa-nuJV5bWE2vfmLjr-11" value="" style="shape=partialRectangle;collapsible=0;dropTarget=0;pointerEvents=0;fillColor=none;top=0;left=0;bottom=0;right=0;points=[[0,0.5],[1,0.5]];portConstraint=eastwest;align=left;" parent="tLHa-nuJV5bWE2vfmLjr-1" vertex="1">
          <mxGeometry y="120" width="420" height="30" as="geometry" />
        </mxCell>
        <mxCell id="tLHa-nuJV5bWE2vfmLjr-12" value="Slide in a tile" style="shape=partialRectangle;connectable=0;fillColor=none;top=0;left=0;bottom=0;right=0;fontStyle=0;overflow=hidden;" parent="tLHa-nuJV5bWE2vfmLjr-11" vertex="1">
          <mxGeometry width="296" height="30" as="geometry" />
        </mxCell>
        <mxCell id="tLHa-nuJV5bWE2vfmLjr-13" value="" style="shape=partialRectangle;connectable=0;fillColor=none;top=0;left=0;bottom=0;right=0;align=left;spacingLeft=6;fontStyle=0;overflow=hidden;" parent="tLHa-nuJV5bWE2vfmLjr-11" vertex="1">
          <mxGeometry x="296" width="124" height="30" as="geometry" />
        </mxCell>
        <mxCell id="tLHa-nuJV5bWE2vfmLjr-14" value="" style="shape=partialRectangle;collapsible=0;dropTarget=0;pointerEvents=0;fillColor=none;top=0;left=0;bottom=0;right=0;points=[[0,0.5],[1,0.5]];portConstraint=eastwest;align=left;" parent="tLHa-nuJV5bWE2vfmLjr-1" vertex="1">
          <mxGeometry y="150" width="420" height="30" as="geometry" />
        </mxCell>
        <mxCell id="tLHa-nuJV5bWE2vfmLjr-15" value="Place an action tile" style="shape=partialRectangle;connectable=0;fillColor=none;top=0;left=0;bottom=0;right=0;fontStyle=0;overflow=hidden;" parent="tLHa-nuJV5bWE2vfmLjr-14" vertex="1">
          <mxGeometry width="296" height="30" as="geometry" />
        </mxCell>
        <mxCell id="tLHa-nuJV5bWE2vfmLjr-16" value="" style="shape=partialRectangle;connectable=0;fillColor=none;top=0;left=0;bottom=0;right=0;align=left;spacingLeft=6;fontStyle=0;overflow=hidden;" parent="tLHa-nuJV5bWE2vfmLjr-14" vertex="1">
          <mxGeometry x="296" width="124" height="30" as="geometry" />
        </mxCell>
        <mxCell id="tLHa-nuJV5bWE2vfmLjr-17" value="" style="shape=partialRectangle;collapsible=0;dropTarget=0;pointerEvents=0;fillColor=none;top=0;left=0;bottom=0;right=0;points=[[0,0.5],[1,0.5]];portConstraint=eastwest;" parent="tLHa-nuJV5bWE2vfmLjr-1" vertex="1">
          <mxGeometry y="180" width="420" height="30" as="geometry" />
        </mxCell>
        <mxCell id="tLHa-nuJV5bWE2vfmLjr-18" value="Place a fixed floor tile" style="shape=partialRectangle;connectable=0;fillColor=none;top=0;left=0;bottom=0;right=0;fontStyle=0;overflow=hidden;" parent="tLHa-nuJV5bWE2vfmLjr-17" vertex="1">
          <mxGeometry width="296" height="30" as="geometry" />
        </mxCell>
        <mxCell id="tLHa-nuJV5bWE2vfmLjr-19" value="" style="shape=partialRectangle;connectable=0;fillColor=none;top=0;left=0;bottom=0;right=0;align=left;spacingLeft=6;fontStyle=0;overflow=hidden;" parent="tLHa-nuJV5bWE2vfmLjr-17" vertex="1">
          <mxGeometry x="296" width="124" height="30" as="geometry" />
        </mxCell>
        <mxCell id="tLHa-nuJV5bWE2vfmLjr-20" value="" style="shape=partialRectangle;collapsible=0;dropTarget=0;pointerEvents=0;fillColor=none;top=0;left=0;bottom=0;right=0;points=[[0,0.5],[1,0.5]];portConstraint=eastwest;align=left;" parent="tLHa-nuJV5bWE2vfmLjr-1" vertex="1">
          <mxGeometry y="210" width="420" height="30" as="geometry" />
        </mxCell>
        <mxCell id="tLHa-nuJV5bWE2vfmLjr-21" value="Move player piece" style="shape=partialRectangle;connectable=0;fillColor=none;top=0;left=0;bottom=0;right=0;fontStyle=0;overflow=hidden;" parent="tLHa-nuJV5bWE2vfmLjr-20" vertex="1">
          <mxGeometry width="296" height="30" as="geometry" />
        </mxCell>
        <mxCell id="tLHa-nuJV5bWE2vfmLjr-22" value="" style="shape=partialRectangle;connectable=0;fillColor=none;top=0;left=0;bottom=0;right=0;align=left;spacingLeft=6;fontStyle=0;overflow=hidden;" parent="tLHa-nuJV5bWE2vfmLjr-20" vertex="1">
          <mxGeometry x="296" width="124" height="30" as="geometry" />
        </mxCell>
        <mxCell id="tLHa-nuJV5bWE2vfmLjr-23" value="" style="shape=partialRectangle;collapsible=0;dropTarget=0;pointerEvents=0;fillColor=none;top=0;left=0;bottom=0;right=0;points=[[0,0.5],[1,0.5]];portConstraint=eastwest;align=left;" parent="tLHa-nuJV5bWE2vfmLjr-1" vertex="1">
          <mxGeometry y="240" width="420" height="30" as="geometry" />
        </mxCell>
        <mxCell id="tLHa-nuJV5bWE2vfmLjr-24" value="Freeze tile" style="shape=partialRectangle;connectable=0;fillColor=none;top=0;left=0;bottom=0;right=0;fontStyle=0;overflow=hidden;" parent="tLHa-nuJV5bWE2vfmLjr-23" vertex="1">
          <mxGeometry width="296" height="30" as="geometry" />
        </mxCell>
        <mxCell id="tLHa-nuJV5bWE2vfmLjr-25" value="" style="shape=partialRectangle;connectable=0;fillColor=none;top=0;left=0;bottom=0;right=0;align=left;spacingLeft=6;fontStyle=0;overflow=hidden;" parent="tLHa-nuJV5bWE2vfmLjr-23" vertex="1">
          <mxGeometry x="296" width="124" height="30" as="geometry" />
        </mxCell>
        <mxCell id="tLHa-nuJV5bWE2vfmLjr-26" value="" style="shape=partialRectangle;collapsible=0;dropTarget=0;pointerEvents=0;fillColor=none;top=0;left=0;bottom=0;right=0;points=[[0,0.5],[1,0.5]];portConstraint=eastwest;align=left;" parent="tLHa-nuJV5bWE2vfmLjr-1" vertex="1">
          <mxGeometry y="270" width="420" height="30" as="geometry" />
        </mxCell>
        <mxCell id="tLHa-nuJV5bWE2vfmLjr-27" value="Flame tile" style="shape=partialRectangle;connectable=0;fillColor=none;top=0;left=0;bottom=0;right=0;fontStyle=0;overflow=hidden;" parent="tLHa-nuJV5bWE2vfmLjr-26" vertex="1">
          <mxGeometry width="296" height="30" as="geometry" />
        </mxCell>
        <mxCell id="tLHa-nuJV5bWE2vfmLjr-28" value="" style="shape=partialRectangle;connectable=0;fillColor=none;top=0;left=0;bottom=0;right=0;align=left;spacingLeft=6;fontStyle=0;overflow=hidden;" parent="tLHa-nuJV5bWE2vfmLjr-26" vertex="1">
          <mxGeometry x="296" width="124" height="30" as="geometry" />
        </mxCell>
        <mxCell id="tLHa-nuJV5bWE2vfmLjr-29" value="" style="shape=partialRectangle;collapsible=0;dropTarget=0;pointerEvents=0;fillColor=none;top=0;left=0;bottom=0;right=0;points=[[0,0.5],[1,0.5]];portConstraint=eastwest;align=left;" parent="tLHa-nuJV5bWE2vfmLjr-1" vertex="1">
          <mxGeometry y="300" width="420" height="30" as="geometry" />
        </mxCell>
        <mxCell id="tLHa-nuJV5bWE2vfmLjr-30" value="" style="shape=partialRectangle;connectable=0;fillColor=none;top=0;left=0;bottom=0;right=0;fontStyle=0;overflow=hidden;" parent="tLHa-nuJV5bWE2vfmLjr-29" vertex="1">
          <mxGeometry width="296" height="30" as="geometry" />
        </mxCell>
        <mxCell id="tLHa-nuJV5bWE2vfmLjr-31" value="" style="shape=partialRectangle;connectable=0;fillColor=none;top=0;left=0;bottom=0;right=0;align=left;spacingLeft=6;fontStyle=0;overflow=hidden;" parent="tLHa-nuJV5bWE2vfmLjr-29" vertex="1">
          <mxGeometry x="296" width="124" height="30" as="geometry" />
        </mxCell>
        <mxCell id="tLHa-nuJV5bWE2vfmLjr-89" value="Player" style="shape=table;html=1;whiteSpace=wrap;startSize=30;container=1;collapsible=0;childLayout=tableLayout;fixedRows=1;rowLines=0;fontStyle=1;align=center;" parent="1" vertex="1">
          <mxGeometry x="550" y="200" width="480" height="220" as="geometry" />
        </mxCell>
        <mxCell id="tLHa-nuJV5bWE2vfmLjr-90" value="" style="shape=partialRectangle;html=1;whiteSpace=wrap;collapsible=0;dropTarget=0;pointerEvents=0;fillColor=none;top=0;left=0;bottom=1;right=0;points=[[0,0.5],[1,0.5]];portConstraint=eastwest;" parent="tLHa-nuJV5bWE2vfmLjr-89" vertex="1">
          <mxGeometry y="30" width="480" height="30" as="geometry" />
        </mxCell>
        <mxCell id="tLHa-nuJV5bWE2vfmLjr-91" value="Responsibilities" style="shape=partialRectangle;html=1;whiteSpace=wrap;connectable=0;fillColor=none;top=0;left=0;bottom=0;right=0;overflow=hidden;" parent="tLHa-nuJV5bWE2vfmLjr-90" vertex="1">
          <mxGeometry width="326" height="30" as="geometry" />
        </mxCell>
        <mxCell id="tLHa-nuJV5bWE2vfmLjr-92" value="Collaborations" style="shape=partialRectangle;html=1;whiteSpace=wrap;connectable=0;fillColor=none;top=0;left=0;bottom=0;right=0;align=left;spacingLeft=6;overflow=hidden;" parent="tLHa-nuJV5bWE2vfmLjr-90" vertex="1">
          <mxGeometry x="326" width="154" height="30" as="geometry" />
        </mxCell>
        <mxCell id="tLHa-nuJV5bWE2vfmLjr-93" value="" style="shape=partialRectangle;html=1;whiteSpace=wrap;collapsible=0;dropTarget=0;pointerEvents=0;fillColor=none;top=0;left=0;bottom=0;right=0;points=[[0,0.5],[1,0.5]];portConstraint=eastwest;" parent="tLHa-nuJV5bWE2vfmLjr-89" vertex="1">
          <mxGeometry y="60" width="480" height="30" as="geometry" />
        </mxCell>
        <mxCell id="tLHa-nuJV5bWE2vfmLjr-94" value="Play a floor tile" style="shape=partialRectangle;html=1;whiteSpace=wrap;connectable=0;fillColor=none;top=0;left=0;bottom=0;right=0;overflow=hidden;" parent="tLHa-nuJV5bWE2vfmLjr-93" vertex="1">
          <mxGeometry width="326" height="30" as="geometry" />
        </mxCell>
        <mxCell id="tLHa-nuJV5bWE2vfmLjr-95" value="Silk bag" style="shape=partialRectangle;html=1;whiteSpace=wrap;connectable=0;fillColor=none;top=0;left=0;bottom=0;right=0;align=left;spacingLeft=6;overflow=hidden;" parent="tLHa-nuJV5bWE2vfmLjr-93" vertex="1">
          <mxGeometry x="326" width="154" height="30" as="geometry" />
        </mxCell>
        <mxCell id="tLHa-nuJV5bWE2vfmLjr-96" value="" style="shape=partialRectangle;html=1;whiteSpace=wrap;collapsible=0;dropTarget=0;pointerEvents=0;fillColor=none;top=0;left=0;bottom=0;right=0;points=[[0,0.5],[1,0.5]];portConstraint=eastwest;" parent="tLHa-nuJV5bWE2vfmLjr-89" vertex="1">
          <mxGeometry y="90" width="480" height="30" as="geometry" />
        </mxCell>
        <mxCell id="tLHa-nuJV5bWE2vfmLjr-97" value="&lt;div&gt;Play a action tile&lt;br&gt;&lt;/div&gt;" style="shape=partialRectangle;html=1;whiteSpace=wrap;connectable=0;fillColor=none;top=0;left=0;bottom=0;right=0;overflow=hidden;" parent="tLHa-nuJV5bWE2vfmLjr-96" vertex="1">
          <mxGeometry width="326" height="30" as="geometry" />
        </mxCell>
        <mxCell id="tLHa-nuJV5bWE2vfmLjr-98" value="Tile" style="shape=partialRectangle;html=1;whiteSpace=wrap;connectable=0;fillColor=none;top=0;left=0;bottom=0;right=0;align=left;spacingLeft=6;overflow=hidden;" parent="tLHa-nuJV5bWE2vfmLjr-96" vertex="1">
          <mxGeometry x="326" width="154" height="30" as="geometry" />
        </mxCell>
        <mxCell id="tLHa-nuJV5bWE2vfmLjr-102" value="" style="shape=partialRectangle;collapsible=0;dropTarget=0;pointerEvents=0;fillColor=none;top=0;left=0;bottom=0;right=0;points=[[0,0.5],[1,0.5]];portConstraint=eastwest;align=left;" parent="tLHa-nuJV5bWE2vfmLjr-89" vertex="1">
          <mxGeometry y="120" width="480" height="30" as="geometry" />
        </mxCell>
        <mxCell id="tLHa-nuJV5bWE2vfmLjr-103" value="Move player piece" style="shape=partialRectangle;connectable=0;fillColor=none;top=0;left=0;bottom=0;right=0;fontStyle=0;overflow=hidden;" parent="tLHa-nuJV5bWE2vfmLjr-102" vertex="1">
          <mxGeometry width="326" height="30" as="geometry" />
        </mxCell>
        <mxCell id="tLHa-nuJV5bWE2vfmLjr-104" value="" style="shape=partialRectangle;connectable=0;fillColor=none;top=0;left=0;bottom=0;right=0;align=left;spacingLeft=6;fontStyle=0;overflow=hidden;" parent="tLHa-nuJV5bWE2vfmLjr-102" vertex="1">
          <mxGeometry x="326" width="154" height="30" as="geometry" />
        </mxCell>
        <mxCell id="tLHa-nuJV5bWE2vfmLjr-108" value="" style="shape=partialRectangle;collapsible=0;dropTarget=0;pointerEvents=0;fillColor=none;top=0;left=0;bottom=0;right=0;points=[[0,0.5],[1,0.5]];portConstraint=eastwest;align=left;" parent="tLHa-nuJV5bWE2vfmLjr-89" vertex="1">
          <mxGeometry y="150" width="480" height="30" as="geometry" />
        </mxCell>
        <mxCell id="tLHa-nuJV5bWE2vfmLjr-109" value="Draw from the silk bag" style="shape=partialRectangle;connectable=0;fillColor=none;top=0;left=0;bottom=0;right=0;fontStyle=0;overflow=hidden;" parent="tLHa-nuJV5bWE2vfmLjr-108" vertex="1">
          <mxGeometry width="326" height="30" as="geometry" />
        </mxCell>
        <mxCell id="tLHa-nuJV5bWE2vfmLjr-110" value="" style="shape=partialRectangle;connectable=0;fillColor=none;top=0;left=0;bottom=0;right=0;align=left;spacingLeft=6;fontStyle=0;overflow=hidden;" parent="tLHa-nuJV5bWE2vfmLjr-108" vertex="1">
          <mxGeometry x="326" width="154" height="30" as="geometry" />
        </mxCell>
        <mxCell id="tLHa-nuJV5bWE2vfmLjr-111" value="" style="shape=partialRectangle;collapsible=0;dropTarget=0;pointerEvents=0;fillColor=none;top=0;left=0;bottom=0;right=0;points=[[0,0.5],[1,0.5]];portConstraint=eastwest;align=left;" parent="tLHa-nuJV5bWE2vfmLjr-89" vertex="1">
          <mxGeometry y="180" width="480" height="30" as="geometry" />
        </mxCell>
        <mxCell id="tLHa-nuJV5bWE2vfmLjr-112" value="Slide floor tile" style="shape=partialRectangle;connectable=0;fillColor=none;top=0;left=0;bottom=0;right=0;fontStyle=0;overflow=hidden;" parent="tLHa-nuJV5bWE2vfmLjr-111" vertex="1">
          <mxGeometry width="326" height="30" as="geometry" />
        </mxCell>
        <mxCell id="tLHa-nuJV5bWE2vfmLjr-113" value="" style="shape=partialRectangle;connectable=0;fillColor=none;top=0;left=0;bottom=0;right=0;align=left;spacingLeft=6;fontStyle=0;overflow=hidden;" parent="tLHa-nuJV5bWE2vfmLjr-111" vertex="1">
          <mxGeometry x="326" width="154" height="30" as="geometry" />
        </mxCell>
        <mxCell id="tLHa-nuJV5bWE2vfmLjr-32" value="GameData" style="shape=table;html=1;whiteSpace=wrap;startSize=30;container=1;collapsible=0;childLayout=tableLayout;fixedRows=1;rowLines=0;fontStyle=1;align=center;" parent="1" vertex="1">
          <mxGeometry x="550" y="40" width="420" height="120" as="geometry" />
        </mxCell>
        <mxCell id="tLHa-nuJV5bWE2vfmLjr-33" value="" style="shape=partialRectangle;html=1;whiteSpace=wrap;collapsible=0;dropTarget=0;pointerEvents=0;fillColor=none;top=0;left=0;bottom=1;right=0;points=[[0,0.5],[1,0.5]];portConstraint=eastwest;" parent="tLHa-nuJV5bWE2vfmLjr-32" vertex="1">
          <mxGeometry y="30" width="420" height="30" as="geometry" />
        </mxCell>
        <mxCell id="tLHa-nuJV5bWE2vfmLjr-34" value="Responsibilities" style="shape=partialRectangle;html=1;whiteSpace=wrap;connectable=0;fillColor=none;top=0;left=0;bottom=0;right=0;overflow=hidden;" parent="tLHa-nuJV5bWE2vfmLjr-33" vertex="1">
          <mxGeometry width="250" height="30" as="geometry" />
        </mxCell>
        <mxCell id="tLHa-nuJV5bWE2vfmLjr-35" value="Collaborations" style="shape=partialRectangle;html=1;whiteSpace=wrap;connectable=0;fillColor=none;top=0;left=0;bottom=0;right=0;align=left;spacingLeft=6;overflow=hidden;" parent="tLHa-nuJV5bWE2vfmLjr-33" vertex="1">
          <mxGeometry x="250" width="170" height="30" as="geometry" />
        </mxCell>
        <mxCell id="tLHa-nuJV5bWE2vfmLjr-36" value="" style="shape=partialRectangle;html=1;whiteSpace=wrap;collapsible=0;dropTarget=0;pointerEvents=0;fillColor=none;top=0;left=0;bottom=0;right=0;points=[[0,0.5],[1,0.5]];portConstraint=eastwest;" parent="tLHa-nuJV5bWE2vfmLjr-32" vertex="1">
          <mxGeometry y="60" width="420" height="30" as="geometry" />
        </mxCell>
        <mxCell id="tLHa-nuJV5bWE2vfmLjr-37" value="History of moves" style="shape=partialRectangle;html=1;whiteSpace=wrap;connectable=0;fillColor=none;top=0;left=0;bottom=0;right=0;overflow=hidden;" parent="tLHa-nuJV5bWE2vfmLjr-36" vertex="1">
          <mxGeometry width="250" height="30" as="geometry" />
        </mxCell>
        <mxCell id="tLHa-nuJV5bWE2vfmLjr-38" value="" style="shape=partialRectangle;html=1;whiteSpace=wrap;connectable=0;fillColor=none;top=0;left=0;bottom=0;right=0;align=left;spacingLeft=6;overflow=hidden;" parent="tLHa-nuJV5bWE2vfmLjr-36" vertex="1">
          <mxGeometry x="250" width="170" height="30" as="geometry" />
        </mxCell>
        <mxCell id="tLHa-nuJV5bWE2vfmLjr-39" value="" style="shape=partialRectangle;html=1;whiteSpace=wrap;collapsible=0;dropTarget=0;pointerEvents=0;fillColor=none;top=0;left=0;bottom=0;right=0;points=[[0,0.5],[1,0.5]];portConstraint=eastwest;" parent="tLHa-nuJV5bWE2vfmLjr-32" vertex="1">
          <mxGeometry y="90" width="420" height="30" as="geometry" />
        </mxCell>
        <mxCell id="tLHa-nuJV5bWE2vfmLjr-40" value="" style="shape=partialRectangle;html=1;whiteSpace=wrap;connectable=0;fillColor=none;top=0;left=0;bottom=0;right=0;overflow=hidden;" parent="tLHa-nuJV5bWE2vfmLjr-39" vertex="1">
          <mxGeometry width="250" height="30" as="geometry" />
        </mxCell>
        <mxCell id="tLHa-nuJV5bWE2vfmLjr-41" value="" style="shape=partialRectangle;html=1;whiteSpace=wrap;connectable=0;fillColor=none;top=0;left=0;bottom=0;right=0;align=left;spacingLeft=6;overflow=hidden;" parent="tLHa-nuJV5bWE2vfmLjr-39" vertex="1">
          <mxGeometry x="250" width="170" height="30" as="geometry" />
        </mxCell>
        <mxCell id="tLHa-nuJV5bWE2vfmLjr-64" value="Silk Bag" style="shape=table;html=1;whiteSpace=wrap;startSize=30;container=1;collapsible=0;childLayout=tableLayout;fixedRows=1;rowLines=0;fontStyle=1;align=center;" parent="1" vertex="1">
          <mxGeometry x="90" y="390" width="420" height="170" as="geometry" />
        </mxCell>
        <mxCell id="tLHa-nuJV5bWE2vfmLjr-65" value="" style="shape=partialRectangle;html=1;whiteSpace=wrap;collapsible=0;dropTarget=0;pointerEvents=0;fillColor=none;top=0;left=0;bottom=1;right=0;points=[[0,0.5],[1,0.5]];portConstraint=eastwest;" parent="tLHa-nuJV5bWE2vfmLjr-64" vertex="1">
          <mxGeometry y="30" width="420" height="30" as="geometry" />
        </mxCell>
        <mxCell id="tLHa-nuJV5bWE2vfmLjr-66" value="Responsibilities" style="shape=partialRectangle;html=1;whiteSpace=wrap;connectable=0;fillColor=none;top=0;left=0;bottom=0;right=0;overflow=hidden;" parent="tLHa-nuJV5bWE2vfmLjr-65" vertex="1">
          <mxGeometry width="240" height="30" as="geometry" />
        </mxCell>
        <mxCell id="tLHa-nuJV5bWE2vfmLjr-67" value="Collaborations" style="shape=partialRectangle;html=1;whiteSpace=wrap;connectable=0;fillColor=none;top=0;left=0;bottom=0;right=0;align=left;spacingLeft=6;overflow=hidden;" parent="tLHa-nuJV5bWE2vfmLjr-65" vertex="1">
          <mxGeometry x="240" width="180" height="30" as="geometry" />
        </mxCell>
        <mxCell id="tLHa-nuJV5bWE2vfmLjr-68" value="" style="shape=partialRectangle;html=1;whiteSpace=wrap;collapsible=0;dropTarget=0;pointerEvents=0;fillColor=none;top=0;left=0;bottom=0;right=0;points=[[0,0.5],[1,0.5]];portConstraint=eastwest;" parent="tLHa-nuJV5bWE2vfmLjr-64" vertex="1">
          <mxGeometry y="60" width="420" height="30" as="geometry" />
        </mxCell>
        <mxCell id="tLHa-nuJV5bWE2vfmLjr-69" value="Get random Floor Tile" style="shape=partialRectangle;html=1;whiteSpace=wrap;connectable=0;fillColor=none;top=0;left=0;bottom=0;right=0;overflow=hidden;" parent="tLHa-nuJV5bWE2vfmLjr-68" vertex="1">
          <mxGeometry width="240" height="30" as="geometry" />
        </mxCell>
        <mxCell id="tLHa-nuJV5bWE2vfmLjr-70" value="" style="shape=partialRectangle;html=1;whiteSpace=wrap;connectable=0;fillColor=none;top=0;left=0;bottom=0;right=0;align=left;spacingLeft=6;overflow=hidden;" parent="tLHa-nuJV5bWE2vfmLjr-68" vertex="1">
          <mxGeometry x="240" width="180" height="30" as="geometry" />
        </mxCell>
        <mxCell id="tLHa-nuJV5bWE2vfmLjr-74" value="" style="shape=partialRectangle;collapsible=0;dropTarget=0;pointerEvents=0;fillColor=none;top=0;left=0;bottom=0;right=0;points=[[0,0.5],[1,0.5]];portConstraint=eastwest;align=left;" parent="tLHa-nuJV5bWE2vfmLjr-64" vertex="1">
          <mxGeometry y="90" width="420" height="30" as="geometry" />
        </mxCell>
        <mxCell id="tLHa-nuJV5bWE2vfmLjr-75" value="Get Random Tile" style="shape=partialRectangle;connectable=0;fillColor=none;top=0;left=0;bottom=0;right=0;fontStyle=0;overflow=hidden;" parent="tLHa-nuJV5bWE2vfmLjr-74" vertex="1">
          <mxGeometry width="240" height="30" as="geometry" />
        </mxCell>
        <mxCell id="tLHa-nuJV5bWE2vfmLjr-76" value="" style="shape=partialRectangle;connectable=0;fillColor=none;top=0;left=0;bottom=0;right=0;align=left;spacingLeft=6;fontStyle=0;overflow=hidden;" parent="tLHa-nuJV5bWE2vfmLjr-74" vertex="1">
          <mxGeometry x="240" width="180" height="30" as="geometry" />
        </mxCell>
        <mxCell id="tLHa-nuJV5bWE2vfmLjr-83" value="" style="shape=partialRectangle;collapsible=0;dropTarget=0;pointerEvents=0;fillColor=none;top=0;left=0;bottom=0;right=0;points=[[0,0.5],[1,0.5]];portConstraint=eastwest;align=left;" parent="tLHa-nuJV5bWE2vfmLjr-64" vertex="1">
          <mxGeometry y="120" width="420" height="30" as="geometry" />
        </mxCell>
        <mxCell id="tLHa-nuJV5bWE2vfmLjr-84" value="Insert tile" style="shape=partialRectangle;connectable=0;fillColor=none;top=0;left=0;bottom=0;right=0;fontStyle=0;overflow=hidden;" parent="tLHa-nuJV5bWE2vfmLjr-83" vertex="1">
          <mxGeometry width="240" height="30" as="geometry" />
        </mxCell>
        <mxCell id="tLHa-nuJV5bWE2vfmLjr-85" value="" style="shape=partialRectangle;connectable=0;fillColor=none;top=0;left=0;bottom=0;right=0;align=left;spacingLeft=6;fontStyle=0;overflow=hidden;" parent="tLHa-nuJV5bWE2vfmLjr-83" vertex="1">
          <mxGeometry x="240" width="180" height="30" as="geometry" />
        </mxCell>
        <mxCell id="tLHa-nuJV5bWE2vfmLjr-86" value="" style="shape=partialRectangle;collapsible=0;dropTarget=0;pointerEvents=0;fillColor=none;top=0;left=0;bottom=0;right=0;points=[[0,0.5],[1,0.5]];portConstraint=eastwest;align=left;" parent="tLHa-nuJV5bWE2vfmLjr-64" vertex="1">
          <mxGeometry y="150" width="420" height="20" as="geometry" />
        </mxCell>
        <mxCell id="tLHa-nuJV5bWE2vfmLjr-87" value="" style="shape=partialRectangle;connectable=0;fillColor=none;top=0;left=0;bottom=0;right=0;fontStyle=0;overflow=hidden;" parent="tLHa-nuJV5bWE2vfmLjr-86" vertex="1">
          <mxGeometry width="240" height="20" as="geometry" />
        </mxCell>
        <mxCell id="tLHa-nuJV5bWE2vfmLjr-88" value="" style="shape=partialRectangle;connectable=0;fillColor=none;top=0;left=0;bottom=0;right=0;align=left;spacingLeft=6;fontStyle=0;overflow=hidden;" parent="tLHa-nuJV5bWE2vfmLjr-86" vertex="1">
          <mxGeometry x="240" width="180" height="20" as="geometry" />
        </mxCell>
        <mxCell id="tLHa-nuJV5bWE2vfmLjr-120" value="GameLogic" style="shape=table;html=1;whiteSpace=wrap;startSize=30;container=1;collapsible=0;childLayout=tableLayout;fixedRows=1;rowLines=0;fontStyle=1;align=center;" parent="1" vertex="1">
          <mxGeometry x="560" y="440" width="420" height="200" as="geometry" />
        </mxCell>
        <mxCell id="tLHa-nuJV5bWE2vfmLjr-121" value="" style="shape=partialRectangle;html=1;whiteSpace=wrap;collapsible=0;dropTarget=0;pointerEvents=0;fillColor=none;top=0;left=0;bottom=1;right=0;points=[[0,0.5],[1,0.5]];portConstraint=eastwest;" parent="tLHa-nuJV5bWE2vfmLjr-120" vertex="1">
          <mxGeometry y="30" width="420" height="30" as="geometry" />
        </mxCell>
        <mxCell id="tLHa-nuJV5bWE2vfmLjr-122" value="Responsibilities" style="shape=partialRectangle;html=1;whiteSpace=wrap;connectable=0;fillColor=none;top=0;left=0;bottom=0;right=0;overflow=hidden;" parent="tLHa-nuJV5bWE2vfmLjr-121" vertex="1">
          <mxGeometry width="304" height="30" as="geometry" />
        </mxCell>
        <mxCell id="tLHa-nuJV5bWE2vfmLjr-123" value="Collaborations" style="shape=partialRectangle;html=1;whiteSpace=wrap;connectable=0;fillColor=none;top=0;left=0;bottom=0;right=0;align=left;spacingLeft=6;overflow=hidden;" parent="tLHa-nuJV5bWE2vfmLjr-121" vertex="1">
          <mxGeometry x="304" width="116" height="30" as="geometry" />
        </mxCell>
        <mxCell id="tLHa-nuJV5bWE2vfmLjr-124" value="" style="shape=partialRectangle;html=1;whiteSpace=wrap;collapsible=0;dropTarget=0;pointerEvents=0;fillColor=none;top=0;left=0;bottom=0;right=0;points=[[0,0.5],[1,0.5]];portConstraint=eastwest;" parent="tLHa-nuJV5bWE2vfmLjr-120" vertex="1">
          <mxGeometry y="60" width="420" height="30" as="geometry" />
        </mxCell>
        <mxCell id="tLHa-nuJV5bWE2vfmLjr-125" value="Finalise user choice" style="shape=partialRectangle;html=1;whiteSpace=wrap;connectable=0;fillColor=none;top=0;left=0;bottom=0;right=0;overflow=hidden;" parent="tLHa-nuJV5bWE2vfmLjr-124" vertex="1">
          <mxGeometry width="304" height="30" as="geometry" />
        </mxCell>
        <mxCell id="tLHa-nuJV5bWE2vfmLjr-126" value="Gameboard" style="shape=partialRectangle;html=1;whiteSpace=wrap;connectable=0;fillColor=none;top=0;left=0;bottom=0;right=0;align=left;spacingLeft=6;overflow=hidden;" parent="tLHa-nuJV5bWE2vfmLjr-124" vertex="1">
          <mxGeometry x="304" width="116" height="30" as="geometry" />
        </mxCell>
        <mxCell id="tLHa-nuJV5bWE2vfmLjr-127" value="" style="shape=partialRectangle;html=1;whiteSpace=wrap;collapsible=0;dropTarget=0;pointerEvents=0;fillColor=none;top=0;left=0;bottom=0;right=0;points=[[0,0.5],[1,0.5]];portConstraint=eastwest;" parent="tLHa-nuJV5bWE2vfmLjr-120" vertex="1">
          <mxGeometry y="90" width="420" height="30" as="geometry" />
        </mxCell>
        <mxCell id="tLHa-nuJV5bWE2vfmLjr-128" value="Find possible locations to slide a tile" style="shape=partialRectangle;html=1;whiteSpace=wrap;connectable=0;fillColor=none;top=0;left=0;bottom=0;right=0;overflow=hidden;" parent="tLHa-nuJV5bWE2vfmLjr-127" vertex="1">
          <mxGeometry width="304" height="30" as="geometry" />
        </mxCell>
        <mxCell id="tLHa-nuJV5bWE2vfmLjr-129" value="Player" style="shape=partialRectangle;html=1;whiteSpace=wrap;connectable=0;fillColor=none;top=0;left=0;bottom=0;right=0;align=left;spacingLeft=6;overflow=hidden;" parent="tLHa-nuJV5bWE2vfmLjr-127" vertex="1">
          <mxGeometry x="304" width="116" height="30" as="geometry" />
        </mxCell>
        <mxCell id="tLHa-nuJV5bWE2vfmLjr-130" value="" style="shape=partialRectangle;collapsible=0;dropTarget=0;pointerEvents=0;fillColor=none;top=0;left=0;bottom=0;right=0;points=[[0,0.5],[1,0.5]];portConstraint=eastwest;align=left;" parent="tLHa-nuJV5bWE2vfmLjr-120" vertex="1">
          <mxGeometry y="120" width="420" height="30" as="geometry" />
        </mxCell>
        <mxCell id="tLHa-nuJV5bWE2vfmLjr-131" value="Find possible move directions" style="shape=partialRectangle;connectable=0;fillColor=none;top=0;left=0;bottom=0;right=0;fontStyle=0;overflow=hidden;" parent="tLHa-nuJV5bWE2vfmLjr-130" vertex="1">
          <mxGeometry width="304" height="30" as="geometry" />
        </mxCell>
        <mxCell id="tLHa-nuJV5bWE2vfmLjr-132" value="GameData" style="shape=partialRectangle;connectable=0;fillColor=none;top=0;left=0;bottom=0;right=0;align=left;spacingLeft=6;fontStyle=0;overflow=hidden;" parent="tLHa-nuJV5bWE2vfmLjr-130" vertex="1">
          <mxGeometry x="304" width="116" height="30" as="geometry" />
        </mxCell>
        <mxCell id="tLHa-nuJV5bWE2vfmLjr-133" value="" style="shape=partialRectangle;collapsible=0;dropTarget=0;pointerEvents=0;fillColor=none;top=0;left=0;bottom=0;right=0;points=[[0,0.5],[1,0.5]];portConstraint=eastwest;align=left;" parent="tLHa-nuJV5bWE2vfmLjr-120" vertex="1">
          <mxGeometry y="150" width="420" height="30" as="geometry" />
        </mxCell>
        <mxCell id="tLHa-nuJV5bWE2vfmLjr-134" value="Find possible action card to play" style="shape=partialRectangle;connectable=0;fillColor=none;top=0;left=0;bottom=0;right=0;fontStyle=0;overflow=hidden;" parent="tLHa-nuJV5bWE2vfmLjr-133" vertex="1">
          <mxGeometry width="304" height="30" as="geometry" />
        </mxCell>
        <mxCell id="tLHa-nuJV5bWE2vfmLjr-135" value="" style="shape=partialRectangle;connectable=0;fillColor=none;top=0;left=0;bottom=0;right=0;align=left;spacingLeft=6;fontStyle=0;overflow=hidden;" parent="tLHa-nuJV5bWE2vfmLjr-133" vertex="1">
          <mxGeometry x="304" width="116" height="30" as="geometry" />
        </mxCell>
      </root>
    </mxGraphModel>
  </diagram>
</mxfile>
